<svg width="18" height="18" viewBox="0 0 18 18" fill="none" xmlns="http://www.w3.org/2000/svg">
<path d="M8.988 12.6113C10.935 12.6113 12.5175 11.028 12.5175 9.081C12.5175 8.02425 12.0503 7.0755 11.313 6.4275C11.0535 6.20025 10.7618 6.0105 10.4445 5.8665C9.99975 5.664 9.50775 5.55075 8.98875 5.55075C8.46975 5.55075 7.977 5.664 7.533 5.8665C7.215 6.012 6.9225 6.20175 6.6645 6.42825C5.92575 7.07625 5.4585 8.025 5.4585 9.08175C5.4585 11.028 7.0425 12.6113 8.988 12.6113ZM9 6.47325C10.4408 6.47325 11.6093 7.641 11.6093 9.08175C11.6093 10.5225 10.4408 11.691 9 11.691C7.55925 11.691 6.39075 10.5233 6.39075 9.08175C6.39075 7.641 7.55925 6.47325 9 6.47325ZM12.9173 6.75H18V14.4585C18 16.4145 16.4145 18 14.4585 18H3.58875C1.63275 18 0 16.4145 0 14.4585V6.75H5.06025C4.65225 7.43475 4.40625 8.22675 4.40625 9.08175C4.40625 11.6123 6.4575 13.6635 8.988 13.6635C11.5185 13.6635 13.5697 11.6123 13.5697 9.08175C13.5705 8.22675 13.3245 7.43475 12.9173 6.75ZM14.4585 0H5.25V3.75H4.5V0H3.75V3.75H3V0.05775C2.7405 0.1005 2.4885 0.165 2.25 0.26025V3.75H1.5V0.6735C0.5985 1.31625 0 2.358 0 3.5415V6H5.60475C6.48 5.0385 7.70325 4.5 8.988 4.5C10.2795 4.5 11.5013 5.04375 12.3713 6H18V3.5415C18 1.5855 16.4145 0 14.4585 0ZM16.5 3.94875C16.5 4.25325 16.2502 4.5 15.9412 4.5H14.058C13.7498 4.5 13.5 4.25325 13.5 3.94875V2.05125C13.5 1.74675 13.7498 1.5 14.058 1.5H15.9412C16.2502 1.5 16.5 1.74675 16.5 2.05125V3.94875Z" fill="white"/>
</svg>
