<svg width="140" height="75" viewBox="0 0 140 75" fill="none" xmlns="http://www.w3.org/2000/svg">
<path d="M7.5816 52.691H6.94449L0 60.2247V61.2128H2.35729V68.129C2.35729 72.6369 5.35171 74.1807 8.7921 74.1807C10.3849 74.1807 11.7865 73.8719 13.6341 73.1926V69.5493C12.2962 70.2285 11.2768 70.4755 10.2574 70.4755C8.79209 70.4755 7.5816 69.3023 7.5816 67.882V61.2745H13.6341V57.8164H7.5816V52.691ZM21.7891 62.386H21.7254V57.7546H16.5011V73.8102H21.7254V66.8939C22.8722 63.9298 24.0827 62.2008 25.9941 62.2008C26.8223 62.2008 27.7143 62.5713 29.1159 63.3741L30.5813 58.9279C29.0522 57.8164 28.1602 57.4459 27.1408 57.4459C25.0384 57.4459 23.3182 59.0514 21.7891 62.386ZM46.5727 69.6728V62.3243C46.5727 58.8044 43.7057 57.4459 39.5645 57.4459C36.9523 57.4459 34.5313 58.1251 32.3652 59.4219V63.5593C34.0216 61.892 36.3789 60.8422 38.4814 60.8422C40.775 60.8422 41.4758 62.0155 41.3484 63.5593C34.4039 65.6589 31.4732 66.3999 31.4732 70.2285C31.4732 72.2664 33.4483 74.1807 36.1241 74.1807C37.908 74.1807 39.5645 73.6867 41.6032 72.3899C41.9855 73.6867 42.8137 74.1807 44.5339 74.1807C45.9356 74.1807 47.9743 73.5631 49.4397 72.6986V69.858C48.2292 70.7226 47.8469 70.7843 47.4647 70.7843C46.8913 70.7843 46.5727 70.4756 46.5727 69.6728ZM41.3484 69.9815C40.4564 70.7226 39.4371 71.2166 38.4814 71.2166C37.5257 71.2166 36.7612 70.4755 36.7612 69.4875C36.7612 67.882 38.2265 67.2027 41.3484 66.0912V69.9815ZM58.1681 66.6469L54.664 57.8164H49.0574L56.7027 74.2424H59.6334L67.2787 57.8164H61.7359L58.1681 66.6469ZM104.677 52.691H104.04L97.0955 60.2247V61.2128H99.4528V68.129C99.4528 72.6369 102.447 74.1807 105.888 74.1807C107.48 74.1807 108.882 73.8719 110.73 73.1926V69.5493C109.392 70.2285 108.372 70.4755 107.353 70.4755C105.888 70.4755 104.677 69.3023 104.677 67.882V61.2745H110.73V57.8164H104.677V52.691ZM77.0902 57.4459C71.9934 57.4459 68.3618 60.9657 68.3618 65.8441C68.3618 70.8461 72.1208 74.1189 77.9822 74.1189C79.2564 74.1189 82.3783 74.1189 85.3727 72.0193V68.87C82.9517 70.5991 81.2952 71.1548 79.1927 71.1548C75.9434 71.1548 73.9047 69.4875 73.7136 66.6469H85.6275C85.946 60.7805 81.9323 57.4459 77.0902 57.4459ZM73.9047 63.9916C74.0958 61.7685 75.4337 60.4717 77.4725 60.4717C79.5112 60.4717 80.8492 61.7685 81.0403 63.9916H73.9047ZM122.006 57.4459C117.101 57.4459 112.641 60.2865 112.641 65.7824C112.641 70.8461 116.591 74.1807 122.006 74.1807C125.702 74.1807 131.308 72.2046 131.308 65.8441C131.308 59.669 126.084 57.4459 122.006 57.4459ZM122.006 71.1548C120.031 71.1548 118.184 69.9198 118.184 65.7824C118.184 62.139 119.713 60.4717 122.006 60.4717C124.619 60.4717 125.765 62.5713 125.765 65.7207C125.765 69.2405 124.427 71.1548 122.006 71.1548ZM89.1953 73.8719H94.4196V50.0974H89.1953V73.8719ZM137.233 8.90884C134.749 5.01846 130.99 2.91889 125.957 1.12808L125.447 1.00457C125.319 0.942819 125.192 0.942821 125.128 0.881069L124.491 0.695811L123.79 0.510563C118.948 -0.539221 114.043 0.0165432 110.029 2.30137C105.505 4.89495 102.447 9.27935 101.173 15.084C99.7713 21.568 102.575 31.5718 110.093 44.6015L110.411 45.466L110.602 53.8025L112.896 54.3583L117.037 47.0098C129.524 38.982 137.488 30.5838 139.208 24.2851C140.737 18.6039 140.037 13.2932 137.233 8.90884ZM123.981 0.634065C124.045 0.634065 124.045 0.634065 124.109 0.634065C124.109 0.634065 124.045 0.634065 123.981 0.634065ZM111.176 50.6532L111.112 45.6513C110.857 44.8485 105.696 28.4224 104.932 24.7791C104.104 21.074 104.359 17.1218 104.422 17.1218C105.187 5.69772 112.386 1.80735 118.12 0.757567C99.835 5.14196 108.5 29.1017 108.5 29.1017C108.5 29.1017 108.563 17.7394 110.347 11.5642C111.685 5.08021 116.91 2.17786 120.095 1.25158C116.527 2.85714 112.514 7.48853 112.131 18.6656C111.876 26.5081 111.43 44.972 111.43 45.1572C112.195 45.0337 112.705 45.0955 113.597 45.3425L112.131 50.9002L111.176 50.6532ZM135.449 24.4703C135.449 24.4703 133.92 27.8667 131.499 30.769C129.142 33.5479 116.782 46.3305 116.209 46.8863L113.533 51.4559L112.577 51.0237L114.106 45.466C114.871 45.5895 115.381 45.8983 115.954 46.2688C116.846 44.8485 123.854 30.2133 127.677 22.556C132.328 13.108 130.99 6.99452 128.76 3.72166C131.053 6.06824 134.494 10.9466 132.71 17.1218C131.436 23.4205 125.001 33.7331 125.001 33.7331C125.001 33.7331 144.369 17.5541 131.245 4.70969C135.641 8.41481 139.718 14.837 135.449 24.4703Z" fill="#0098DB"/>
</svg>
