<?xml version="1.0" encoding="utf-8"?>
<!-- Generator: Adobe Illustrator 16.0.3, SVG Export Plug-In . SVG Version: 6.00 Build 0)  -->
<!DOCTYPE svg PUBLIC "-//W3C//DTD SVG 1.1//EN" "http://www.w3.org/Graphics/SVG/1.1/DTD/svg11.dtd">
<svg version="1.1" id="Capa_1" xmlns="http://www.w3.org/2000/svg" xmlns:xlink="http://www.w3.org/1999/xlink" x="0px" y="0px"
	 width="595.279px" height="841.891px" viewBox="0 0 595.279 841.891" enable-background="new 0 0 595.279 841.891"
	 xml:space="preserve">
<g>
	<g>
		<path fill="#FF6847" d="M540.049,393.521V260.957c0-29.226-23.777-53.003-53.003-53.003H108.234
			c-29.226,0-53.003,23.778-53.003,53.003v132.564C23.425,402.325,0,431.508,0,466.076v100.725c0,9.759,7.913,17.672,17.672,17.672
			h37.559v31.792c0,9.759,7.913,17.672,17.673,17.672c9.759,0,17.672-7.913,17.672-17.672v-31.792h414.129v31.792
			c0,9.759,7.913,17.672,17.673,17.672c9.759,0,17.672-7.913,17.672-17.672v-31.792h37.559c9.76,0,17.672-7.913,17.672-17.672
			V466.076C595.28,431.508,571.854,402.325,540.049,393.521z M90.575,260.957c0-9.736,7.923-17.659,17.658-17.659h378.813
			c9.736,0,17.658,7.922,17.658,17.659v129.829h-41.408v-35.474c0-30.847-25.095-55.941-55.94-55.941H335.91
			c-14.794,0-28.256,5.782-38.27,15.194c-10.014-9.411-23.475-15.194-38.269-15.194h-71.446c-30.847,0-55.941,25.096-55.941,55.941
			v35.474H90.575V260.957z M427.952,355.312v35.474h-112.64v-35.474c0-11.358,9.24-20.597,20.596-20.597h71.446
			C418.713,334.715,427.952,343.955,427.952,355.312z M279.967,355.312v35.474H167.326v-35.474c0-11.358,9.24-20.597,20.596-20.597
			h71.447C270.727,334.715,279.967,343.955,279.967,355.312z M559.935,549.128H35.345v-83.052c0-22.025,17.919-39.945,39.945-39.945
			H519.99c22.025,0,39.945,17.919,39.945,39.945V549.128z"/>
	</g>
</g>
</svg>
