
<svg  xmlns="http://www.w3.org/2000/svg" 
	 width="37.836px" height="36.387px" viewBox="474.164 465.807 37.836 36.387"
	 >
<path fill="#FF6847" stroke="#FF6847"  d="M507.724,469.249h-4.686v-1.537c0-0.647-0.524-1.172-1.172-1.172
	c-0.646,0-1.171,0.524-1.171,1.172v1.537h-6.442v-1.537c0-0.647-0.524-1.172-1.171-1.172s-1.172,0.524-1.172,1.172v1.537h-6.442
	v-1.537c0-0.647-0.523-1.172-1.171-1.172c-0.646,0-1.172,0.524-1.172,1.172v1.537h-4.685c-1.938,0-3.514,1.576-3.514,3.514v25.184
	c0,1.938,1.576,3.514,3.514,3.514h29.283c1.938,0,3.514-1.576,3.514-3.514v-25.184C511.238,470.825,509.661,469.249,507.724,469.249
	z M508.895,497.946c0,0.646-0.525,1.171-1.171,1.171h-29.283c-0.646,0-1.172-0.525-1.172-1.171v-17.644h26.501
	c0.647,0,1.172-0.523,1.172-1.172c0-0.646-0.524-1.17-1.172-1.17h-26.501v-5.198c0-0.646,0.525-1.171,1.172-1.171h4.685v1.537
	c0,0.646,0.525,1.171,1.172,1.171c0.647,0,1.171-0.524,1.171-1.171v-1.537h6.442v1.537c0,0.646,0.525,1.171,1.172,1.171
	s1.171-0.524,1.171-1.171v-1.537h6.442v1.537c0,0.646,0.524,1.171,1.171,1.171c0.647,0,1.172-0.524,1.172-1.171v-1.537h4.686
	c0.646,0,1.171,0.524,1.171,1.171V497.946z"/>
</svg>
