<?xml version="1.0" encoding="utf-8"?>
<!-- Generator: Adobe Illustrator 16.0.3, SVG Export Plug-In . SVG Version: 6.00 Build 0)  -->
<!DOCTYPE svg PUBLIC "-//W3C//DTD SVG 1.1//EN" "http://www.w3.org/Graphics/SVG/1.1/DTD/svg11.dtd">
<svg version="1.1" id="Capa_1" xmlns="http://www.w3.org/2000/svg" xmlns:xlink="http://www.w3.org/1999/xlink" x="0px" y="0px"
	 width="595.279px" height="841.891px" viewBox="0 0 595.279 841.891" enable-background="new 0 0 595.279 841.891"
	 xml:space="preserve">
<g>
	<g>
		<path fill="#FF6847" d="M545.82,196.558H49.577C22.269,196.558,0,218.826,0,246.252v180.612c0,27.309,22.269,49.577,49.577,49.577
			h496.125c27.309,0,49.577-22.269,49.577-49.577V246.252C595.397,218.826,573.128,196.558,545.82,196.558z M545.82,443.39H49.577
			c-9.142,0-16.525-7.384-16.525-16.525V246.252c0-9.142,7.384-16.525,16.525-16.525h496.125c9.143,0,16.526,7.384,16.526,16.525
			v180.612h0.117C562.346,436.006,554.962,443.39,545.82,443.39z"/>
	</g>
</g>
<g>
	<g>
		<path fill="#FF6847" d="M502.454,377.287H92.943c-9.142,0-16.525,7.384-16.525,16.526c0,9.142,7.384,16.525,16.525,16.525h409.395
			c9.142,0,16.525-7.384,16.525-16.525C518.863,384.67,511.479,377.287,502.454,377.287z"/>
	</g>
</g>
<g>
	<g>
		<path fill="#FF6847" d="M189.402,522.62c-8.087-4.103-18.049-0.938-22.269,7.267l-46.765,91.653
			c-4.102,8.087-1.172,18.753,7.267,22.269c9.611,3.985,19.339-1.523,22.27-7.267l46.764-91.653
			C200.771,536.802,197.49,526.839,189.402,522.62z"/>
	</g>
</g>
<g>
	<g>
		<path fill="#FF6847" d="M475.029,621.54l-46.765-91.653c-4.103-8.205-14.064-11.369-22.269-7.267
			c-8.087,4.102-11.369,14.064-7.267,22.269l46.765,91.653c2.93,5.743,12.657,11.252,22.269,7.267
			C476.2,640.293,479.131,629.744,475.029,621.54z"/>
	</g>
</g>
<g>
	<g>
		<path fill="#FF6847" d="M297.698,520.627c-9.142,0-16.525,7.384-16.525,16.526v91.653c0,9.142,7.384,16.526,16.525,16.526
			s16.525-7.385,16.525-16.526v-91.653C314.224,528.011,306.84,520.627,297.698,520.627z"/>
	</g>
</g>
</svg>
