<?xml version="1.0" encoding="utf-8"?>
<!-- Generator: Adobe Illustrator 16.0.3, SVG Export Plug-In . SVG Version: 6.00 Build 0)  -->
<!DOCTYPE svg PUBLIC "-//W3C//DTD SVG 1.1//EN" "http://www.w3.org/Graphics/SVG/1.1/DTD/svg11.dtd">
<svg version="1.1" id="Layer_1" xmlns="http://www.w3.org/2000/svg" xmlns:xlink="http://www.w3.org/1999/xlink" x="0px" y="0px"
	 width="512px" height="512px" viewBox="0 0 512 512" enable-background="new 0 0 512 512" xml:space="preserve">
<g>
	<path fill="#FF6847" d="M507.86,426.392l-26.097-50.874c18.028-10.166,30.228-29.5,30.228-51.629V46.418
		c0-8.284-6.716-15-14.999-15c-8.284,0-14.999,6.716-14.999,15v25H30.008v-25c0-8.284-6.716-15-14.999-15s-14.999,6.716-14.999,15
		v277.471c0,22.129,12.2,41.465,30.228,51.629L4.14,426.392c-5.965,11.627-5.458,25.228,1.354,36.38
		c6.812,11.151,18.682,17.811,31.75,17.811c9.759,0,18.982-3.751,25.969-10.563l89.16-86.903h207.254l89.158,86.903
		c6.987,6.812,16.21,10.563,25.971,10.563c13.067,0,24.938-6.658,31.75-17.812C513.318,451.619,513.824,438.019,507.86,426.392
		L507.86,426.392z M481.991,283.115h-60.998V101.418h60.998V283.115z M121.005,283.115V101.418h69.998v181.697H121.005z
		 M221.001,101.418h69.998v181.697h-69.998V101.418z M320.997,101.418h69.998v181.697h-69.998V101.418z M91.006,101.418v181.697
		H30.008V101.418H91.006z M30.008,313.115h451.983v10.773c0,16.115-13.11,29.227-29.226,29.227H59.233
		c-16.114,0-29.226-13.111-29.226-29.227L30.008,313.115L30.008,313.115z M42.273,448.537c-1.352,1.319-3.139,2.045-5.028,2.045
		c-3.518,0-5.363-2.162-6.15-3.45s-1.867-3.917-0.262-7.046l29.225-56.97h49.336L42.273,448.537z M480.906,447.132
		c-0.787,1.289-2.633,3.45-6.149,3.45c-1.892,0-3.678-0.726-5.03-2.045l-67.119-65.421h49.336l29.227,56.97
		C482.773,443.215,481.693,445.844,480.906,447.132L480.906,447.132z"/>
</g>
</svg>
