<?xml version="1.0" encoding="utf-8"?>
<!-- Generator: Adobe Illustrator 16.0.3, SVG Export Plug-In . SVG Version: 6.00 Build 0)  -->
<!DOCTYPE svg PUBLIC "-//W3C//DTD SVG 1.1//EN" "http://www.w3.org/Graphics/SVG/1.1/DTD/svg11.dtd">
<svg version="1.1" id="Capa_1" xmlns="http://www.w3.org/2000/svg" xmlns:xlink="http://www.w3.org/1999/xlink" x="0px" y="0px"
	 width="512px" height="512px" viewBox="0 0 512 512" enable-background="new 0 0 512 512" xml:space="preserve">
<path fill="#FF6847" d="M253.801,0H48.586C21.797,0,0,21.793,0,48.586v414.832C0,490.207,21.797,512,48.586,512h205.215
	c26.789,0,48.582-21.793,48.582-48.582V48.586C302.383,21.793,280.59,0,253.801,0z M30.578,48.586
	c0-9.93,8.078-18.008,18.008-18.008h205.215c9.926,0,18.004,8.078,18.004,18.008v106.582H30.578V48.586z M271.805,463.414
	c0,9.93-8.078,18.008-18.004,18.008H48.586c-9.93,0-18.008-8.078-18.008-18.008V185.746h241.227V463.414z"/>
<path fill="#FF6847" d="M70.949,57.195c-8.445,0-15.289,6.848-15.289,15.289v40.773c0,8.445,6.844,15.289,15.289,15.289
	c8.441,0,15.289-6.844,15.289-15.289V72.484C86.239,64.043,79.391,57.195,70.949,57.195z"/>
<path fill="#FF6847" d="M70.949,278.578c8.441,0,15.289-6.844,15.289-15.289v-40.773c0-8.445-6.848-15.289-15.289-15.289
	c-8.445,0-15.289,6.844-15.289,15.289v40.773C55.66,271.734,62.504,278.578,70.949,278.578z"/>
</svg>
