<?xml version="1.0" encoding="utf-8"?>
<!-- Generator: Adobe Illustrator 16.0.3, SVG Export Plug-In . SVG Version: 6.00 Build 0)  -->
<!DOCTYPE svg PUBLIC "-//W3C//DTD SVG 1.1//EN" "http://www.w3.org/Graphics/SVG/1.1/DTD/svg11.dtd">
<svg version="1.1" id="Capa_1" xmlns="http://www.w3.org/2000/svg" xmlns:xlink="http://www.w3.org/1999/xlink" x="0px" y="0px"
	 width="512px" height="512px" viewBox="0 0 512 512" enable-background="new 0 0 512 512" xml:space="preserve">
<g>
	<path fill="#FF6847" d="M50,0v512h412V0H50z M80,30h161v79H80V30z M432,482H80V139h352V482z M432,109H271V30h161V109z"/>
	<path fill="#FF6847" d="M365.71,240.08C342.52,203.97,302,180,256,180c-71.83,0-130.28,58.44-130.28,130.279
		c0,71.83,58.45,130.271,130.28,130.271c46,0,86.51-23.97,109.699-60.069c13.021-20.271,20.58-44.371,20.58-70.201
		C386.28,284.45,378.72,260.35,365.71,240.08L365.71,240.08z M256,410.55c-55.29,0-100.28-44.979-100.28-100.271
		C155.72,254.98,200.71,210,256,210c30.779,0,58.359,13.94,76.76,35.83c14.67,17.439,23.52,39.93,23.52,64.449
		c0,24.511-8.85,47-23.529,64.441C314.36,396.609,286.78,410.55,256,410.55z"/>
	<path fill="#FF6847" d="M310.43,261.391l-5.63-5.101c-13.39-12.12-30.73-18.79-48.8-18.79c-40.13,0-72.78,32.65-72.78,72.779
		c0,40.131,32.65,72.771,72.78,72.771c18.069,0,35.41-6.67,48.8-18.79l5.63-5.09c-12.24-12.65-19.77-29.891-19.77-48.891
		S298.19,274.04,310.43,261.391L310.43,261.391z M272.39,349.8c-5.15,2.13-10.71,3.25-16.39,3.25c-23.59,0-42.78-19.19-42.78-42.77
		c0-23.591,19.19-42.78,42.78-42.78c5.68,0,11.239,1.12,16.39,3.26c-7.54,11.67-11.68,25.391-11.68,39.521
		C260.71,324.4,264.85,338.12,272.39,349.8z"/>
	<path fill="#FF6847" d="M329.666,53.5h75.668v30h-75.668V53.5z"/>
	<path fill="#FF6847" d="M155.987,53.5h30.224v30h-30.224V53.5z"/>
	<path fill="#FF6847" d="M107.237,53.5h30.224v30h-30.224V53.5z"/>
</g>
</svg>
