<?xml version="1.0" encoding="utf-8"?>
<!DOCTYPE svg PUBLIC "-//W3C//DTD SVG 1.1//EN" "http://www.w3.org/Graphics/SVG/1.1/DTD/svg11.dtd">
<svg version="1.1" id="Capa_1" xmlns="http://www.w3.org/2000/svg" xmlns:xlink="http://www.w3.org/1999/xlink" x="0px" y="0px"
	 width="38.14px" height="48.658px" viewBox="557.14 793.232 38.14 48.658" enable-background="new 557.14 793.232 38.14 48.658"
	 xml:space="preserve">
<g>
	<g>
		<path fill="#FF6847" d="M576.21,805.126c-4.466,0-8.1,3.633-8.1,8.1c0,4.466,3.634,8.1,8.1,8.1s8.1-3.634,8.1-8.1
			C584.31,808.759,580.676,805.126,576.21,805.126z M576.21,817.915c-2.586,0-4.689-2.104-4.689-4.689
			c0-2.586,2.104-4.689,4.689-4.689s4.689,2.104,4.689,4.689C580.9,815.811,578.796,817.915,576.21,817.915z"/>
	</g>
</g>
<g>
	<g>
		<path fill="#FF6847" d="M576.21,795.747c-9.638,0-17.479,7.841-17.479,17.479v0.483c0,4.874,2.795,10.554,8.306,16.881
			c3.996,4.588,7.936,7.786,8.102,7.92l1.071,0.866l1.071-0.866c0.166-0.134,4.105-3.332,8.102-7.919
			c5.511-6.328,8.306-12.008,8.306-16.882v-0.483C593.689,803.588,585.848,795.747,576.21,795.747z M590.279,813.709
			c0,8.236-10.613,18.208-14.068,21.235c-3.456-3.028-14.068-12.999-14.068-21.235v-0.483c0-7.757,6.312-14.068,14.068-14.068
			s14.068,6.312,14.068,14.068V813.709L590.279,813.709z"/>
	</g>
</g>
</svg>
