<svg width="23" height="23" viewBox="0 0 23 23" fill="none" xmlns="http://www.w3.org/2000/svg">
<path d="M11.5 23C17.8412 23 23 17.8412 23 11.5C23 5.15881 17.8412 0 11.5 0C5.15881 0 0 5.15881 0 11.5C0 17.8412 5.15881 23 11.5 23ZM11.5 21.1463C9.28908 21.1463 7.25088 20.3966 5.62217 19.1409C6.34552 17.5146 7.97918 16.4208 9.78679 16.4208H13.1807C14.9976 16.4208 16.6378 17.5208 17.3599 19.1551C15.7343 20.4025 13.7029 21.1463 11.5 21.1463ZM8.48958 10.2362C8.48958 8.57625 9.84003 7.2258 11.5 7.2258C13.16 7.2258 14.5104 8.57625 14.5104 10.2362C14.5104 11.8962 13.16 13.2469 11.5 13.2469C9.84003 13.2469 8.48958 11.8965 8.48958 10.2362ZM11.5 1.85373C16.8191 1.85373 21.1463 6.18086 21.1463 11.5C21.1463 13.922 20.2468 16.1366 18.7673 17.8325C17.7211 15.9943 15.8055 14.7506 13.6629 14.5869C15.2613 13.7889 16.3641 12.141 16.3641 10.2362C16.3641 7.5539 14.182 5.37207 11.5 5.37207C8.81799 5.37207 6.63585 7.55421 6.63585 10.2362C6.63585 12.1398 7.73775 13.7871 9.33458 14.5856C7.19052 14.7398 5.269 15.9785 4.21786 17.8152C2.74701 16.1215 1.85373 13.914 1.85373 11.5C1.85373 6.18086 6.18086 1.85373 11.5 1.85373Z" fill="#FF6847"/>
</svg>
