<?xml version="1.0" encoding="utf-8"?>
<!-- Generator: Adobe Illustrator 16.0.3, SVG Export Plug-In . SVG Version: 6.00 Build 0)  -->
<!DOCTYPE svg PUBLIC "-//W3C//DTD SVG 1.1//EN" "http://www.w3.org/Graphics/SVG/1.1/DTD/svg11.dtd">
<svg version="1.1" id="Capa_1" xmlns="http://www.w3.org/2000/svg" xmlns:xlink="http://www.w3.org/1999/xlink" x="0px" y="0px"
	 width="512px" height="512px" viewBox="0 0 512 512" enable-background="new 0 0 512 512" xml:space="preserve">
<path fill="#FF6847" d="M80.746,352.629l20.766-12.176c9.238-5.418,20.68-5.355,29.855,0.164l19.43,11.68
	c9.387,5.645,19.941,8.469,30.504,8.469c10.34,0,20.688-2.711,29.941-8.137l20.766-12.176c9.238-5.418,20.68-5.355,29.859,0.164
	l19.426,11.68c18.586,11.172,41.746,11.297,60.449,0.332l20.766-12.176c9.238-5.418,20.676-5.355,29.855,0.164l19.426,11.68
	c18.586,11.172,41.746,11.297,60.449,0.332l20.785-12.188l-15.172-25.879l-20.789,12.188c-9.223,5.41-20.648,5.348-29.813-0.164
	l-19.43-11.68c-15.688-9.434-34.645-11-51.43-4.66V80.68c0-27.945,22.734-50.68,50.68-50.68h25.434V0h-25.438
	c-44.484,0-80.676,36.191-80.676,80.68v24.523H200.567V80.68c0-27.945,22.734-50.68,50.68-50.68h25.434V0h-25.434
	c-44.488,0-80.68,36.191-80.68,80.68v248.023c-1.477-0.586-2.922-1.281-4.313-2.117l-19.426-11.68
	c-18.594-11.18-41.773-11.309-60.488-0.332l-20.77,12.176c-9.223,5.41-20.648,5.348-29.813-0.164l-19.301-11.602L1,340.695
	l19.301,11.602C38.883,363.469,62.043,363.594,80.746,352.629z M296.754,326.586l-19.43-11.68
	c-18.594-11.18-41.773-11.309-60.488-0.332l-16.27,9.539v-81.563h125.824v84.297C317.196,332.156,305.86,332.063,296.754,326.586z
	 M326.387,135.203v77.348h-125.82v-77.348H326.387z"/>
<path fill="#FF6847" d="M80.746,428.246l20.766-12.176c9.238-5.418,20.68-5.355,29.855,0.164l19.43,11.68
	c18.582,11.172,41.742,11.297,60.445,0.332l20.766-12.176c9.238-5.418,20.68-5.355,29.859,0.164l19.426,11.68
	c18.582,11.172,41.742,11.301,60.449,0.332l20.766-12.176c9.238-5.418,20.676-5.355,29.855,0.164l19.426,11.68
	c9.391,5.645,19.945,8.469,30.504,8.469c10.344,0,20.691-2.711,29.945-8.137l20.785-12.188l-15.176-25.879l-20.785,12.188
	c-9.227,5.41-20.648,5.348-29.813-0.164l-19.43-11.68c-18.594-11.184-41.77-11.309-60.488-0.332l-20.766,12.176
	c-9.223,5.41-20.648,5.348-29.813-0.164l-19.426-11.68c-18.598-11.184-41.777-11.309-60.492-0.332l-20.766,12.176
	c-9.223,5.41-20.648,5.348-29.813-0.164l-19.426-11.68c-18.598-11.184-41.777-11.309-60.492-0.332l-20.766,12.176
	c-9.227,5.41-20.648,5.348-29.813-0.164l-19.301-11.602L1,416.309l19.301,11.605C38.883,439.086,62.043,439.215,80.746,428.246z"/>
<path fill="#FF6847" d="M457.063,477.984c-9.227,5.41-20.648,5.348-29.813-0.164l-19.43-11.68
	c-18.594-11.184-41.773-11.313-60.488-0.336l-20.766,12.18c-9.227,5.41-20.648,5.348-29.813-0.164l-19.43-11.68
	c-18.594-11.184-41.773-11.309-60.488-0.336l-20.766,12.18c-9.223,5.406-20.648,5.348-29.813-0.164l-19.43-11.68
	c-18.594-11.184-41.773-11.309-60.488-0.336l-20.766,12.18c-9.227,5.406-20.648,5.348-29.813-0.164l-19.301-11.605L1,491.926
	l19.301,11.605c18.578,11.168,41.742,11.297,60.445,0.332l20.766-12.18c9.238-5.418,20.68-5.352,29.855,0.164l19.43,11.684
	c18.582,11.172,41.742,11.297,60.445,0.332l20.766-12.18c9.238-5.418,20.68-5.352,29.859,0.164l19.426,11.684
	c18.582,11.168,41.742,11.297,60.449,0.332l20.766-12.18c9.238-5.418,20.676-5.352,29.855,0.164l19.426,11.684
	c9.391,5.645,19.945,8.469,30.504,8.469c10.344,0,20.691-2.711,29.945-8.137l20.785-12.191l-15.176-25.879L457.063,477.984z"/>
</svg>
