<svg width="25" height="25" viewBox="0 0 25 25" fill="none" xmlns="http://www.w3.org/2000/svg">
<path fill-rule="evenodd" clip-rule="evenodd" d="M21.1667 1.73331H3.66675C2.50695 1.73331 1.56675 2.67352 1.56675 3.83331V21.3333C1.56675 22.4931 2.50695 23.4333 3.66675 23.4333H21.1667C22.3265 23.4333 23.2667 22.4931 23.2667 21.3333V3.83331C23.2667 2.67352 22.3265 1.73331 21.1667 1.73331ZM3.66675 0.333313C1.73375 0.333313 0.166748 1.90032 0.166748 3.83331V21.3333C0.166748 23.2663 1.73375 24.8333 3.66675 24.8333H21.1667C23.0997 24.8333 24.6667 23.2663 24.6667 21.3333V3.83331C24.6667 1.90032 23.0997 0.333313 21.1667 0.333313H3.66675Z" fill="#FF6847"/>
<path fill-rule="evenodd" clip-rule="evenodd" d="M14.0695 4.99998C14.0695 4.51673 14.4613 4.12498 14.9445 4.12498H20.0001C20.4833 4.12498 20.8751 4.51673 20.8751 4.99998V10.0555C20.8751 10.5388 20.4833 10.9305 20.0001 10.9305C19.5168 10.9305 19.1251 10.5388 19.1251 10.0555V7.11242L14.7207 11.5168C14.3789 11.8586 13.8249 11.8586 13.4832 11.5168C13.1415 11.1751 13.1415 10.6211 13.4832 10.2794L17.8876 5.87498H14.9445C14.4613 5.87498 14.0695 5.48323 14.0695 4.99998ZM11.3503 13.6498C11.692 13.9915 11.692 14.5455 11.3503 14.8872L6.94585 19.2916H9.88897C10.3722 19.2916 10.764 19.6834 10.764 20.1666C10.764 20.6499 10.3722 21.0416 9.88897 21.0416H4.83342C4.35017 21.0416 3.95842 20.6499 3.95842 20.1666V15.1111C3.95842 14.6278 4.35017 14.2361 4.83342 14.2361C5.31666 14.2361 5.70842 14.6278 5.70842 15.1111V18.0542L10.1128 13.6498C10.4546 13.3081 11.0086 13.3081 11.3503 13.6498Z" fill="#FF6847"/>
</svg>
