<?xml version="1.0" encoding="utf-8"?>
<!-- Generator: Adobe Illustrator 16.0.3, SVG Export Plug-In . SVG Version: 6.00 Build 0)  -->
<!DOCTYPE svg PUBLIC "-//W3C//DTD SVG 1.1//EN" "http://www.w3.org/Graphics/SVG/1.1/DTD/svg11.dtd">
<svg version="1.1" id="Capa_1" xmlns="http://www.w3.org/2000/svg" xmlns:xlink="http://www.w3.org/1999/xlink" x="0px" y="0px"
	 width="512px" height="512px" viewBox="0 0 512 512" enable-background="new 0 0 512 512" xml:space="preserve">
<path fill="#FF6847" d="M481.52,482v-83c0-13.488-1.859-26.555-5.32-38.953c42.875-82.516,30.598-183.031-30.621-252.895
	l21.566-21.566L456.539,74.98C408.188,26.629,343.899,0,275.52,0S142.852,26.629,94.5,74.98L83.895,85.586l63.641,63.641
	l10.605-10.605C189.492,107.266,231.18,90,275.52,90s86.027,17.266,117.379,48.621l10.609,10.605l20.801-20.801
	c46.367,54.012,59.465,128.563,35.543,194.41c-19.797-31.938-51.637-55.652-89.137-64.75c-4.309-29.43-25.773-53.348-53.883-61.27
	c2.367-5.465,3.688-11.488,3.688-17.816c0-24.813-20.188-45-45-45s-45,20.188-45,45c0,6.328,1.32,12.352,3.684,17.816
	c-28.105,7.922-49.57,31.836-53.883,61.27c-20.633,5.008-39.559,14.434-55.703,27.23L77.781,238.48L0,316.262l70.078,70.078
	c-0.363,4.172-0.559,8.395-0.559,12.66v83h-30v30h472v-30H481.52z M403.11,107.199C367.606,76.656,322.84,60,275.52,60
	s-92.082,16.656-127.59,47.199l-21.266-21.27C167.879,49.754,220.18,30,275.52,30c55.344,0,107.645,19.754,148.855,55.93
	L403.11,107.199z M275.52,164c8.27,0,15,6.73,15,15s-6.73,15-15,15s-15-6.73-15-15S267.246,164,275.52,164z M254.52,224h42
	c19.566,0,36.246,12.555,42.43,30.031c-0.809-0.012-1.617-0.031-2.43-0.031h-122c-0.813,0-1.621,0.016-2.43,0.031
	C218.274,236.555,234.953,224,254.52,224z M42.426,316.262l35.355-35.355l25.359,25.359c-11.055,13.254-19.789,28.508-25.586,45.125
	L42.426,316.262z M99.52,399c0-63.41,51.59-115,115-115h122c63.41,0,115,51.59,115,115v83h-352V399z"/>
</svg>
