<?xml version="1.0" encoding="utf-8"?>
<!-- Generator: Adobe Illustrator 16.0.3, SVG Export Plug-In . SVG Version: 6.00 Build 0)  -->
<!DOCTYPE svg PUBLIC "-//W3C//DTD SVG 1.1//EN" "http://www.w3.org/Graphics/SVG/1.1/DTD/svg11.dtd">
<svg version="1.1" id="Layer_1" xmlns="http://www.w3.org/2000/svg" xmlns:xlink="http://www.w3.org/1999/xlink" x="0px" y="0px"
	 width="595.279px" height="841.891px" viewBox="0 0 595.279 841.891" enable-background="new 0 0 595.279 841.891"
	 xml:space="preserve">
<g>
	<g>
		<g>
			<path fill="#FF6847" d="M568.218,423.441v-83.665c0-28.37-22.006-51.442-49.809-53.68l-77.698-135.711
				c-7.2-12.552-18.827-21.522-32.739-25.248c-13.847-3.7-28.326-1.757-40.719,5.457L100.9,285.66h-46.78
				c-29.845,0-54.115,24.27-54.115,54.116V664.47c0,29.845,24.27,54.115,54.115,54.115h459.982c29.845,0,54.116-24.27,54.116-54.115
				v-83.666c15.713-5.604,27.057-20.479,27.057-38.095v-81.173C595.275,443.922,583.931,429.045,568.218,423.441z M486.968,285.66
				H369.05l88.439-51.489L486.968,285.66z M444.047,210.69l-128.773,74.97h-53.412l168.829-98.295L444.047,210.69z M380.873,153.979
				c6.117-3.581,13.265-4.532,20.096-2.708c6.91,1.849,12.671,6.315,16.251,12.564l0.028,0.049L208.087,285.66h-53.41
				L380.873,153.979z M541.159,664.47c0,14.915-12.143,27.057-27.058,27.057H54.119c-14.915,0-27.057-12.142-27.057-27.057V339.776
				c0-14.916,12.142-27.058,27.057-27.058h459.982c14.915,0,27.058,12.142,27.058,27.058v81.173h-81.174
				c-44.762,0-81.173,36.411-81.173,81.174c0,44.762,36.411,81.173,81.173,81.173h81.174V664.47L541.159,664.47z M568.218,542.709
				c0,7.465-6.064,13.529-13.529,13.529h-94.703c-29.845,0-54.116-24.27-54.116-54.115s24.27-54.116,54.116-54.116h94.703
				c7.464,0,13.529,6.063,13.529,13.529V542.709z"/>
			<path fill="#FF6847" d="M459.986,475.065c-14.915,0-27.058,12.142-27.058,27.058c0,14.915,12.143,27.057,27.058,27.057
				c14.916,0,27.058-12.142,27.058-27.057C487.044,487.207,474.903,475.065,459.986,475.065z"/>
		</g>
	</g>
</g>
</svg>
