<?xml version="1.0" encoding="utf-8"?>
<!-- Generator: Adobe Illustrator 16.0.3, SVG Export Plug-In . SVG Version: 6.00 Build 0)  -->
<!DOCTYPE svg PUBLIC "-//W3C//DTD SVG 1.1//EN" "http://www.w3.org/Graphics/SVG/1.1/DTD/svg11.dtd">
<svg version="1.1" id="Capa_1" xmlns="http://www.w3.org/2000/svg" xmlns:xlink="http://www.w3.org/1999/xlink" x="0px" y="0px"
	 width="512px" height="512px" viewBox="0 0 512 512" enable-background="new 0 0 512 512" xml:space="preserve">
<path fill="#FF6847" d="M224.154,114.178c8.837,8.82,20.442,13.229,32.049,13.229c11.605,0,23.213-4.409,32.049-13.229
	l36.951-36.884c8.57-8.555,13.289-19.931,13.289-32.032c0-12.101-4.719-23.478-13.289-32.032c-17.673-17.639-46.425-17.639-64.097,0
	l-4.903,4.894l-4.904-4.894c-17.672-17.639-46.425-17.639-64.097,0c-8.57,8.555-13.29,19.931-13.29,32.032
	c0,12.101,4.72,23.479,13.29,32.032L224.154,114.178z M208.391,34.465c2.994-2.988,6.927-4.483,10.86-4.483
	c3.933,0,7.865,1.494,10.859,4.483l15.498,15.469c5.855,5.844,15.334,5.844,21.189,0l15.498-15.469
	c5.989-5.977,15.729-5.977,21.719,0c2.891,2.886,4.482,6.72,4.482,10.797c0,4.077-1.592,7.911-4.482,10.797l-36.952,36.884
	c-5.987,5.976-15.729,5.977-21.719,0l-36.952-36.884c-2.891-2.886-4.482-6.72-4.482-10.797
	C203.909,41.185,205.5,37.351,208.391,34.465L208.391,34.465z"/>
<path fill="#FF6847" d="M454.672,237.349c-12.479-20.967-30.096-40.989-42.017-51.53c-29.116-25.747-54.664-24.836-67.305-22.001
	c-6.759,1.516-13.006,4.268-18.386,8.033c-19.578-13.306-42.953-19.825-70.762-19.825c-28.438,0-52.238,6.817-72.083,20.737
	c-5.168-3.445-11.091-5.977-17.47-7.407c-12.639-2.836-38.19-3.746-67.303,21.999c-11.924,10.543-29.541,30.566-42.018,51.533
	c-18.711,31.443-22.29,57.932-10.638,78.731c13.632,24.322,34.944,30.969,49.773,32.783c-2.158,11.056-3.447,23.132-3.447,37.207
	c0,25.979,6.063,48.544,18.02,67.067c10.616,16.449,25.763,29.552,45.017,38.947C189.812,510.095,229.378,512,256.203,512
	c26.824,0,66.391-1.905,100.147-18.376c19.254-9.396,34.4-22.499,45.016-38.946c11.958-18.521,18.021-41.087,18.021-67.068
	c0-14.734-1.412-27.277-3.757-38.756c14.824-1.832,36.075-8.502,49.678-32.773C476.961,295.283,473.382,268.795,454.672,237.349
	L454.672,237.349z M111.753,301.29c-2.521,6.696-4.955,13.164-7.188,19.673c-13.547-0.695-24.195-4.607-31.707-18.01
	c-7.513-13.41,1.426-33.896,10.246-48.72c10.763-18.086,26.263-35.693,36.11-44.4c19.125-16.914,33.818-16.785,40.871-15.202
	c0.174,0.039,0.347,0.08,0.519,0.122c-18.473,22.46-29.493,50.773-38.635,78.195C118.456,283.484,115.05,292.533,111.753,301.29z
	 M268.173,382.977c-4.106,4.096-9.029,6.955-11.971,6.955c-2.943,0-7.865-2.859-11.97-6.953c-4.121-4.111-6.998-9.088-6.998-12.105
	c0-2.585,0.796-3.355,2.581-4.105c3-1.26,8.055-1.822,16.388-1.822s13.387,0.563,16.388,1.822c1.784,0.75,2.58,1.521,2.58,4.105
	C275.17,373.891,272.292,378.867,268.173,382.977L268.173,382.977z M376.165,438.405c-7.606,11.787-18.698,21.293-32.968,28.255
	c-22.713,11.083-49.839,14.265-71.998,15.082v-64.979c8.049-3.389,14.384-8.781,18.155-12.544
	c5.906-5.891,15.813-18.056,15.813-33.346c0-14.379-7.837-26.254-20.964-31.768c-7.039-2.955-15.151-4.16-28-4.16
	c-12.851,0-20.963,1.205-28,4.16c-13.127,5.513-20.965,17.389-20.965,31.768c0,15.289,9.906,27.455,15.813,33.346
	c3.77,3.762,10.104,9.155,18.154,12.544v64.979c-22.159-0.817-49.284-3.999-71.998-15.082c-14.269-6.962-25.36-16.468-32.969-28.255
	c-8.774-13.595-13.224-30.686-13.224-50.797c0-31.08,7.052-49.817,16.814-75.754c3.393-9.014,6.901-18.336,10.598-29.416
	c8.688-26.06,19.068-52.792,36.047-71.779c17.468-19.534,39.625-28.632,69.729-28.632c30.104,0,52.261,9.098,69.729,28.632
	c16.981,18.99,27.36,45.721,36.047,71.779c3.677,11.027,7.186,20.351,10.598,29.418c9.762,25.934,16.813,44.67,16.813,75.752
	C389.391,407.723,384.942,424.813,376.165,438.405L376.165,438.405z M439.141,301.413c-7.535,13.446-18.227,17.34-31.833,18.019
	c-2.091-6.01-4.349-12.004-6.678-18.195c-3.294-8.752-6.699-17.803-10.195-28.287c-9.325-27.973-20.604-56.874-39.759-79.546
	c0.405-0.113,0.818-0.217,1.237-0.311c7.058-1.58,21.746-1.711,40.873,15.203c9.846,8.705,25.347,26.313,36.109,44.398
	C437.717,267.518,446.654,288.004,439.141,301.413L439.141,301.413z"/>
<path fill="#FF6847" d="M215.925,255.536c-8.283,0-14.998,6.716-14.998,15.001v22.57c0,8.285,6.715,15,14.998,15
	s14.998-6.715,14.998-15v-22.57C230.923,262.252,224.208,255.536,215.925,255.536z"/>
<path fill="#FF6847" d="M296.075,255.536c-8.283,0-14.998,6.716-14.998,15.001v22.57c0,8.285,6.715,15,14.998,15
	c8.282,0,14.997-6.715,14.997-15v-22.57C311.073,262.252,304.359,255.536,296.075,255.536z"/>
</svg>
