<?xml version="1.0" encoding="utf-8"?>
<!-- Generator: Adobe Illustrator 16.0.3, SVG Export Plug-In . SVG Version: 6.00 Build 0)  -->
<!DOCTYPE svg PUBLIC "-//W3C//DTD SVG 1.1//EN" "http://www.w3.org/Graphics/SVG/1.1/DTD/svg11.dtd">
<svg version="1.1" id="Layer_1" xmlns="http://www.w3.org/2000/svg" xmlns:xlink="http://www.w3.org/1999/xlink" x="0px" y="0px"
	 width="192px" height="512px" viewBox="0 0 192 512" enable-background="new 0 0 192 512" xml:space="preserve">
<circle fill="#FC6341" cx="96" cy="56" r="56"/>
<path fill="#FC6341" d="M192,320c0-22.855,0-89.249,0-112c0-52.935-43.064-96-96-96c-52.935,0-96,43.065-96,96v120
	c0,8.837,7.163,16,16,16s16-7.163,16-16V208c0-16.188,6.053-30.981,16-42.265V480h-8c-8.837,0-16,7.163-16,16s7.163,16,16,16h24
	c8.84,0,16-7.16,16-16V344h32v152c0,8.84,7.16,16,16,16h24c8.837,0,16-7.163,16-16s-7.163-16-16-16h-8c0-17.143,0-297.219,0-314.265
	c9.947,11.283,16,26.076,16,42.265"/>
<path fill="#FC6341" d="M32,208c0-16.189,6.053-30.982,16-42.266c0,17.047,0,297.124,0,314.266h-8c-8.837,0-16,7.163-16,16
	s7.163,16,16,16h24c8.84,0,16-7.16,16-16V344h32v152c0,8.84,7.16,16,16,16h24c8.837,0,16-7.163,16-16s-7.163-16-16-16h-8V165.734
	c9.947,11.285,16,26.078,16,42.266v120c0,8.837,7.163,16,16,16s16-7.163,16-16V208c0-52.936-43.064-96-96-96
	c-52.935,0-96,43.064-96,96c0,22.751,0,89.145,0,112"/>
</svg>
