<?xml version="1.0" encoding="utf-8"?>
<!-- Generator: Adobe Illustrator 16.0.3, SVG Export Plug-In . SVG Version: 6.00 Build 0)  -->
<!DOCTYPE svg PUBLIC "-//W3C//DTD SVG 1.1//EN" "http://www.w3.org/Graphics/SVG/1.1/DTD/svg11.dtd">
<svg version="1.1" id="Layer_1" xmlns="http://www.w3.org/2000/svg" xmlns:xlink="http://www.w3.org/1999/xlink" x="0px" y="0px"
	 width="191.333px" height="512px" viewBox="0 0 191.333 512" enable-background="new 0 0 191.333 512" xml:space="preserve">
<path d="M152,56"/>
<path fill="#FC6341" d="M50.407,352c-3.719,10.505-2.739,4.55-2.739,128c-8.837,0-16,7.163-16,16s7.163,16,16,16h16
	c8.84,0,16-7.16,16-16v-56h32v56c0,8.84,7.159,16,16,16h15.999c8.838,0,16-7.163,16-16s-7.162-16-16-16
	c0-123.993,0.941-117.6-2.738-128"/>
<circle fill="#FC6341" cx="95.667" cy="281" r="40"/>
<path fill="#FC6341" d="M191.333,333c0-6.627-5.373-12-12-12H12c-6.627,0-12,5.373-12,12v8c0,6.627,5.373,12,12,12h167.332
	c6.627,0,12-5.373,12-12V333z"/>
</svg>
