<svg width="22" height="20" viewBox="0 0 22 20" fill="none" xmlns="http://www.w3.org/2000/svg">
<path d="M19.1034 3.22583C18.6352 2.75742 18.0793 2.38584 17.4674 2.13232C16.8556 1.87881 16.1998 1.74832 15.5375 1.74832C14.8752 1.74832 14.2195 1.87881 13.6076 2.13232C12.9958 2.38584 12.4399 2.75742 11.9717 3.22583L11 4.19749L10.0284 3.22583C9.08264 2.28011 7.79997 1.74881 6.46253 1.74881C5.12508 1.74881 3.84241 2.28011 2.89669 3.22583C1.95098 4.17155 1.41968 5.45421 1.41968 6.79166C1.41968 8.12911 1.95098 9.41178 2.89669 10.3575L3.86836 11.3292L11 18.4608L18.1317 11.3292L19.1034 10.3575C19.5718 9.8893 19.9434 9.33341 20.1969 8.72157C20.4504 8.10973 20.5809 7.45394 20.5809 6.79166C20.5809 6.12938 20.4504 5.47359 20.1969 4.86175C19.9434 4.24992 19.5718 3.69402 19.1034 3.22583Z" fill="white" stroke="#FF6847" stroke-width="2" stroke-linecap="round" stroke-linejoin="round"/>
</svg>
