<?xml version="1.0" encoding="utf-8"?>
<!-- Generator: Adobe Illustrator 16.0.3, SVG Export Plug-In . SVG Version: 6.00 Build 0)  -->
<!DOCTYPE svg PUBLIC "-//W3C//DTD SVG 1.1//EN" "http://www.w3.org/Graphics/SVG/1.1/DTD/svg11.dtd">
<svg version="1.1" id="Capa_1" xmlns="http://www.w3.org/2000/svg" xmlns:xlink="http://www.w3.org/1999/xlink" x="0px" y="0px"
	 width="22px" height="20px" viewBox="0 0 22 20" enable-background="new 0 0 22 20" xml:space="preserve">
<path fill="#FFFFFF" stroke="#0098DB" stroke-width="2" stroke-linecap="round" stroke-linejoin="round" d="M19.104,3.226
	c-0.469-0.468-1.024-0.84-1.637-1.093c-0.611-0.253-1.268-0.384-1.93-0.384s-1.317,0.131-1.93,0.384
	c-0.611,0.253-1.168,0.625-1.636,1.093L11,4.197l-0.972-0.972C9.083,2.28,7.8,1.749,6.462,1.749S3.842,2.28,2.896,3.226
	C1.951,4.171,1.42,5.454,1.42,6.792s0.531,2.62,1.477,3.566l0.972,0.972L11,18.461l7.132-7.132l0.972-0.972
	c0.469-0.468,0.84-1.024,1.094-1.636c0.253-0.612,0.384-1.268,0.384-1.93c0-0.662-0.131-1.318-0.384-1.93
	C19.943,4.25,19.572,3.694,19.104,3.226z"/>
</svg>
