<svg width="28" height="28" viewBox="0 0 28 28" fill="none" xmlns="http://www.w3.org/2000/svg">
<path d="M17.0105 1.8521C19.1718 1.85461 21.2439 2.71725 22.7722 4.25078C24.3005 5.78431 25.1602 7.86351 25.1627 10.0323C25.1632 10.2776 25.2606 10.5126 25.4336 10.6859C25.6066 10.8592 25.8411 10.9565 26.0855 10.9565C26.3299 10.9565 26.5644 10.8592 26.7374 10.6859C26.9104 10.5126 27.0078 10.2776 27.0083 10.0323C27.0052 7.37254 25.9509 4.82263 24.0766 2.94189C22.2024 1.06115 19.6613 0.0031613 17.0107 0C16.7668 0.00139258 16.5335 0.0995582 16.3615 0.273053C16.1896 0.446548 16.0931 0.681271 16.093 0.925948C16.093 1.17063 16.1895 1.40537 16.3614 1.5789C16.5333 1.75244 16.7666 1.85066 17.0105 1.8521Z" fill="white"/>
<path d="M16.5918 5.88142C17.7503 5.88277 18.8609 6.34507 19.6801 7.1669C20.4993 7.98874 20.9601 9.103 20.9614 10.2652C20.9619 10.5233 21.0644 10.7706 21.2465 10.9529C21.4286 11.1352 21.6753 11.2375 21.9325 11.2375C22.1897 11.2375 22.4364 11.1351 22.6184 10.9527C22.8004 10.7704 22.9029 10.5231 22.9034 10.265C22.9013 8.58634 22.2357 6.97699 21.0526 5.78998C19.8694 4.60297 18.2653 3.9352 16.592 3.93315C16.3355 3.93461 16.0899 4.03788 15.909 4.22038C15.7281 4.40289 15.6266 4.6498 15.6266 4.90718C15.6265 5.16457 15.728 5.4115 15.9089 5.59405C16.0897 5.7766 16.3353 5.8799 16.5918 5.88142Z" fill="white"/>
<path d="M23.2658 17.0173C22.8928 16.6247 22.5312 16.3603 22.0346 16.1463C21.538 15.9323 21.4573 15.6154 19.848 15.6154C19.3115 15.6154 19.11 16.0042 18.7751 16.1538C18.326 16.3545 17.8628 16.7459 17.6151 17.0173L16.074 18.5648C12.9309 16.9124 10.9641 15.0339 9.31862 11.8776L11.4507 10.3114C11.721 10.0626 12.1888 9.49019 12.3379 9.15384C12.487 8.8175 12.475 8.11682 12.4781 7.74867C12.4771 7.20606 12.1775 6.69979 11.9644 6.20115C11.7513 5.70252 11.3288 5.02819 10.9379 4.65364L7.85487 1.5586C7.44646 1.12243 6.64738 0.535355 6.08986 0.323217C5.53233 0.111079 4.94496 -0.0437363 4.35126 0.0111387C3.95483 0.0556331 2.91344 0.307243 2.57989 0.526939C2.24633 0.746634 1.88916 1.40387 1.69058 1.75128C0.335043 4.13017 -0.315906 7.19618 0.149464 10.3114C0.740843 14.2697 3.13331 18.4615 6.31383 21.6598C9.49798 24.8528 13.6733 27.256 17.6151 27.8499C20.7174 28.3172 23.9788 27.6637 26.348 26.3024C26.6939 26.103 27.1392 25.6426 27.358 25.3077C27.5768 24.9728 27.8447 24.1212 27.889 23.7232C27.9437 23.127 28.1057 22.6368 27.8944 22.0769C27.6832 21.517 26.7824 20.5224 26.348 20.1123L23.2658 17.0173ZM25.6124 23.6309C25.6027 23.7589 25.5624 23.8826 25.4948 23.9916C25.4273 24.1006 25.3346 24.1917 25.2245 24.257C23.203 25.4183 20.7041 25.8169 17.9979 25.4093C14.4259 24.8712 10.8509 22.9626 7.93217 20.0357C5.01667 17.104 3.11577 13.5139 2.57994 9.92696C2.17399 7.20942 2.57091 4.7001 3.72745 2.6705C3.7925 2.5599 3.88318 2.4667 3.99179 2.39883C4.10039 2.33096 4.22371 2.29043 4.35126 2.28067C4.67639 2.26245 5.00143 2.31784 5.30237 2.44275C5.6033 2.56766 5.87243 2.75889 6.08986 3.00231L9.31862 6.24458C9.53868 6.45018 9.71601 6.69751 9.84038 6.97229C9.96475 7.24708 10.0337 7.54387 10.0432 7.84555C10.0453 7.97304 10.0215 8.09961 9.97334 8.21757C9.92517 8.33554 9.85361 8.44243 9.76301 8.53176L6.70081 11.285L6.97091 11.8776C8.83994 15.8942 12.0556 19.1233 16.0555 21.0003L16.6457 21.2714L19.3877 18.1958C19.4766 18.1049 19.583 18.0332 19.7004 17.9849C19.8178 17.9366 19.9438 17.9127 20.0706 17.9148C20.371 17.9244 20.6666 17.9936 20.9402 18.1185C21.2139 18.2434 21.4602 18.4215 21.6649 18.6425L24.8937 21.8847C25.1361 22.1031 25.3265 22.3734 25.4509 22.6757C25.5753 22.9779 25.6305 23.3043 25.6124 23.6309Z" fill="white"/>
</svg>
