<?xml version="1.0" encoding="utf-8"?>
<!-- Generator: Adobe Illustrator 16.0.3, SVG Export Plug-In . SVG Version: 6.00 Build 0)  -->
<!DOCTYPE svg PUBLIC "-//W3C//DTD SVG 1.1//EN" "http://www.w3.org/Graphics/SVG/1.1/DTD/svg11.dtd">
<svg version="1.1" id="Capa_1" xmlns="http://www.w3.org/2000/svg" xmlns:xlink="http://www.w3.org/1999/xlink" x="0px" y="0px"
	 width="37.467px" height="41.88px" viewBox="401.063 396.649 37.467 41.88" enable-background="new 401.063 396.649 37.467 41.88"
	 xml:space="preserve">
<g>
	<g>
		<path fill="#FF6847" d="M439.207,403.874c-0.164-0.163-0.373-0.245-0.627-0.245h-8.426l-1.908-4.553
			c-0.272-0.673-0.764-1.246-1.472-1.719c-0.709-0.472-1.428-0.708-2.154-0.708h-8.726c-0.727,0-1.444,0.236-2.153,0.708
			c-0.709,0.473-1.2,1.046-1.473,1.719l-1.909,4.553h-8.425c-0.255,0-0.463,0.082-0.627,0.245c-0.163,0.164-0.245,0.373-0.245,0.627
			v1.745c0,0.255,0.082,0.464,0.245,0.627c0.164,0.164,0.373,0.245,0.627,0.245h2.617v25.957c0,1.509,0.428,2.795,1.282,3.858
			c0.854,1.063,1.881,1.595,3.081,1.595H431.6c1.2,0,2.228-0.55,3.081-1.649c0.854-1.1,1.281-2.404,1.281-3.912v-25.849h2.618
			c0.254,0,0.464-0.081,0.627-0.245c0.163-0.163,0.245-0.372,0.245-0.627v-1.745C439.452,404.247,439.37,404.038,439.207,403.874z
			 M415.486,400.438c0.127-0.164,0.281-0.264,0.463-0.3h8.644c0.182,0.036,0.336,0.137,0.463,0.3l1.31,3.189h-12.216
			L415.486,400.438z M432.473,432.967c0,0.399-0.063,0.768-0.191,1.104c-0.127,0.335-0.259,0.581-0.395,0.735
			c-0.137,0.155-0.231,0.231-0.287,0.231h-22.685c-0.055,0-0.149-0.076-0.286-0.231c-0.137-0.154-0.269-0.4-0.396-0.735
			c-0.128-0.337-0.191-0.705-0.191-1.104v-25.849h24.431V432.967L432.473,432.967z"/>
		<path fill="#FF6847" d="M412.405,429.804h1.744c0.255,0,0.465-0.081,0.628-0.245s0.245-0.372,0.245-0.627v-15.706
			c0-0.254-0.082-0.463-0.245-0.627c-0.164-0.163-0.373-0.245-0.628-0.245h-1.744c-0.255,0-0.464,0.082-0.627,0.245
			c-0.164,0.164-0.246,0.373-0.246,0.627v15.706c0,0.255,0.082,0.463,0.246,0.627C411.941,429.722,412.15,429.804,412.405,429.804z"
			/>
		<path fill="#FF6847" d="M419.385,429.804h1.745c0.255,0,0.464-0.081,0.627-0.245c0.164-0.164,0.245-0.372,0.245-0.627v-15.706
			c0-0.254-0.081-0.463-0.245-0.627c-0.163-0.163-0.372-0.245-0.627-0.245h-1.745c-0.254,0-0.463,0.082-0.627,0.245
			c-0.164,0.164-0.245,0.373-0.245,0.627v15.706c0,0.255,0.081,0.463,0.245,0.627C418.921,429.722,419.131,429.804,419.385,429.804z
			"/>
		<path fill="#FF6847" d="M426.365,429.804h1.744c0.255,0,0.464-0.081,0.628-0.245c0.163-0.164,0.244-0.372,0.244-0.627v-15.706
			c0-0.254-0.081-0.463-0.244-0.627c-0.164-0.163-0.373-0.245-0.628-0.245h-1.744c-0.255,0-0.464,0.082-0.628,0.245
			c-0.163,0.164-0.245,0.373-0.245,0.627v15.706c0,0.255,0.082,0.463,0.245,0.627C425.901,429.722,426.11,429.804,426.365,429.804z"
			/>
	</g>
</g>
</svg>
