<?xml version="1.0" encoding="utf-8"?>
<!-- Generator: Adobe Illustrator 16.0.3, SVG Export Plug-In . SVG Version: 6.00 Build 0)  -->
<!DOCTYPE svg PUBLIC "-//W3C//DTD SVG 1.1//EN" "http://www.w3.org/Graphics/SVG/1.1/DTD/svg11.dtd">
<svg version="1.1" id="Layer_1" xmlns="http://www.w3.org/2000/svg" xmlns:xlink="http://www.w3.org/1999/xlink" x="0px" y="0px"
	 width="512px" height="512px" viewBox="0 0 512 512" enable-background="new 0 0 512 512" xml:space="preserve">
<path fill="#FF6847" d="M431.862,388.301c-2.556-66.977-23.547-163.059-85.691-189.222C413.809,122.049,359.075,0,255.998,0
	C152.79,0,98.287,122.061,165.775,199.019c-62.1,26.161-82.896,121.942-85.626,189.259c-8.61,14.425-8.146,26.421-8.146,36.124
	c0,13.492,3.372,19.48,14.97,50.404c14.586,38.9,64.414,48.614,93.615,22.814c47.89,19.138,102.893,19.154,150.82,0
	c29.267,25.856,79.061,16.003,93.615-22.813c11.728-31.272,14.97-37.123,14.97-50.405
	C439.993,414.69,440.546,402.866,431.862,388.301L431.862,388.301z M223.441,38.245c-4.256,8.831-7.441,18.018-7.441,25.753
	c0,16.349,14.244,39.999,39.999,39.999c25.756,0,39.999-23.65,39.999-39.999c0-8.837-7.163-16-15.999-16
	c-8.785,0-15.916,7.08-15.999,15.844c-0.153,1.034-2.458,8.155-8.001,8.155c-5.496,0-7.815-7.039-7.998-8.144
	c0.141-4.85,7.241-18.619,15.981-31.489c44.794,4.047,80.015,41.8,80.015,87.632c0,48.521-39.476,87.998-87.998,87.998
	c-48.521,0-87.998-39.476-87.998-87.998C168,82.971,190.99,51.216,223.441,38.245L223.441,38.245z M196.72,224.298
	c36.249,20.683,81.413,21.18,118.529,0.015c55.546,3.646,76.005,82.797,82.491,137.828c-4.396-1.231-8.999-1.954-13.746-2.104
	v-8.047c0-8.837-7.163-16-16-16h-11.507l-12.97-51.88c-2.144-8.571-10.832-13.786-19.402-11.641
	c-8.572,2.144-13.783,10.829-11.642,19.402l11.03,44.118H188.493l11.029-44.118c2.144-8.572-3.068-17.259-11.642-19.402
	c-8.573-2.138-17.261,3.069-19.402,11.643l-12.97,51.879h-11.507c-8.837,0-15.999,7.162-15.999,15.999v8.047
	c-4.75,0.149-9.355,0.872-13.752,2.106C120.816,307.192,141.215,227.675,196.72,224.298L196.72,224.298z M140.622,479.988
	c-10.485,0-20.006-6.598-23.687-16.416c-14.23-37.947-12.933-31.563-12.933-45.741c0-14.248,11.593-25.841,25.842-25.841
	c11.141,0,20.992,7.101,24.516,17.669c13.507,40.524,13.643,39.56,13.643,45.031c0,13.948-11.35,25.298-25.298,25.298H140.622z
	 M197.915,469.97c3.055-11.024,2.738-22.613-0.855-33.397l-1.527-4.583h84.466c8.836,0,15.999-7.163,15.999-16
	s-7.163-15.999-15.999-15.999c-102.448,0-95.05,0.249-95.282-0.449c-4.432-13.295-13.338-24.137-24.715-31.084v-0.467
	c202.142,0,191.994-0.248,191.994,0.465c-11.377,6.948-20.283,17.791-24.715,31.085l-12.345,37.032
	c-3.58,10.746-3.92,22.332-0.854,33.396C278.233,482.836,236.477,483.809,197.915,469.97L197.915,469.97z M395.063,463.573
	c-3.682,9.817-13.201,16.415-23.688,16.415h-2.082c-17.218,0-29.456-16.927-23.999-33.298l12.344-37.031
	c3.522-10.568,13.375-17.669,24.517-17.669c14.248,0,25.841,11.593,25.841,25.841C407.994,431.73,409.542,424.96,395.063,463.573z"
	/>
</svg>
