<svg width="25" height="27" viewBox="0 0 25 27" fill="none" xmlns="http://www.w3.org/2000/svg">
<path d="M20.379 11.3159H18.9006V10.5468C18.9006 10.122 18.5574 9.77766 18.1339 9.77766H2.80014C2.37672 9.77766 2.03344 10.122 2.03344 10.5468V15.4256C2.03344 16.6679 2.23674 17.9299 2.62121 19.0751C3.02689 20.2833 3.76247 21.3323 4.76016 22.1352H1.2667C0.84328 22.1351 0.5 22.4795 0.5 22.9043C0.5 25.0248 2.21967 26.75 4.33348 26.75H16.6005C18.7142 26.75 20.434 25.0248 20.434 22.9043C20.434 22.4795 20.0907 22.1351 19.6673 22.1351H16.1738C16.7264 21.6904 17.1981 21.17 17.5781 20.589C20.3819 20.4853 22.5232 19.2423 23.7854 16.9764C25.1738 14.4835 23.2785 11.3159 20.379 11.3159ZM18.7692 23.6734C18.4528 24.5687 17.6001 25.2117 16.6005 25.2117H4.33348C3.33394 25.2117 2.48118 24.5687 2.16478 23.6734C3.82722 23.6734 17.9513 23.6734 18.7692 23.6734ZM17.3672 15.4255C17.3672 16.5028 17.1917 17.595 16.8596 18.584C16.1465 20.7078 14.1143 22.1348 11.8025 22.1351H9.13132C6.81959 22.1349 4.7874 20.7078 4.07432 18.584C3.74223 17.5951 3.56673 16.5029 3.56673 15.4255V11.3159H17.3671L17.3672 15.4255ZM22.4468 16.2259C21.5723 17.7959 20.1946 18.7189 18.3434 18.9805C18.7078 17.8604 18.9006 16.6338 18.9006 15.4255V12.8542H20.3789C22.1075 12.8541 23.264 14.7589 22.4468 16.2259Z" fill="#FF6847"/>
<path d="M7.09707 5.08827C7.82472 4.60162 8.25913 3.77777 8.25908 2.8844C8.25908 1.99103 7.82467 1.11591 7.09702 0.629261C6.7448 0.393626 6.26875 0.489141 6.03381 0.842593C5.79893 1.19604 5.89419 1.67357 6.24646 1.9092C6.551 2.1129 6.72563 2.50096 6.72563 2.8844C6.72574 3.26795 6.55111 3.60468 6.24651 3.80838C5.51886 4.29503 5.08446 5.10929 5.08446 5.98661C5.08446 6.86388 5.51886 7.6782 6.24651 8.1648C6.59726 8.39946 7.07377 8.30645 7.30973 7.95146C7.54461 7.59801 7.44935 7.12049 7.09702 6.88485C6.79248 6.68116 6.6178 6.35375 6.6178 5.98656C6.61785 5.61937 6.79248 5.29201 7.09707 5.08827Z" fill="#FF6847"/>
<path d="M10.9306 5.08827C11.6582 4.60162 12.0926 3.77777 12.0926 2.8844C12.0926 1.99103 11.6582 1.11591 10.9305 0.629261C10.5783 0.393626 10.1023 0.489141 9.86732 0.842593C9.63243 1.19604 9.7277 1.67357 10.08 1.9092C10.3845 2.1129 10.5591 2.50096 10.5591 2.8844C10.5592 3.26795 10.3846 3.60468 10.08 3.80838C9.35237 4.29503 8.91797 5.10929 8.91797 5.98661C8.91797 6.86388 9.35237 7.6782 10.08 8.1648C10.4308 8.39946 10.9073 8.30645 11.1432 7.95146C11.3781 7.59801 11.2829 7.12049 10.9305 6.88485C10.626 6.68116 10.4513 6.35375 10.4513 5.98656C10.4514 5.61937 10.626 5.29201 10.9306 5.08827Z" fill="#FF6847"/>
<path d="M14.7641 5.08827C15.4917 4.60162 15.9261 3.77777 15.9261 2.8844C15.9261 1.99103 15.4917 1.11591 14.7641 0.629261C14.4117 0.393626 13.9357 0.489141 13.7009 0.842593C13.4659 1.19604 13.5612 1.67357 13.9135 1.9092C14.218 2.1129 14.3927 2.50095 14.3927 2.8844C14.3927 3.26795 14.218 3.60468 13.9135 3.80838C13.1859 4.29503 12.7515 5.10929 12.7515 5.98661C12.7515 6.86388 13.1859 7.6782 13.9135 8.16479C14.2652 8.40002 14.7414 8.30553 14.9767 7.95146C15.2117 7.59801 15.1164 7.12049 14.7641 6.88485C14.4595 6.68116 14.2848 6.35375 14.2848 5.98656C14.2848 5.61937 14.4595 5.29201 14.7641 5.08827Z" fill="#FF6847"/>
</svg>
