<?xml version="1.0" encoding="utf-8"?>
<!-- Generator: Adobe Illustrator 16.0.3, SVG Export Plug-In . SVG Version: 6.00 Build 0)  -->
<!DOCTYPE svg PUBLIC "-//W3C//DTD SVG 1.1//EN" "http://www.w3.org/Graphics/SVG/1.1/DTD/svg11.dtd">
<svg version="1.1" id="Capa_1" xmlns="http://www.w3.org/2000/svg" xmlns:xlink="http://www.w3.org/1999/xlink" x="0px" y="0px"
	 width="595.279px" height="841.891px" viewBox="0 0 595.279 841.891" enable-background="new 0 0 595.279 841.891"
	 xml:space="preserve">
<g>
	<g>
		<path fill="#FF6847" d="M547.363,123.363H47.8c-26.36,0-47.8,21.44-47.8,47.801v499.68c0,26.243,21.439,47.683,47.8,47.683h499.68
			c26.36,0,47.8-21.439,47.8-47.8V171.164C595.162,144.804,573.723,123.363,547.363,123.363z M281.062,685.488H47.8
			c-8.083,0-14.645-6.562-14.645-14.645v-499.68c0-8.084,6.562-14.645,14.645-14.645h233.263L281.062,685.488L281.062,685.488z
			 M547.48,685.371H314.101V156.402h233.262c8.084,0,14.645,6.561,14.645,14.645v499.68h0.117
			C562.124,678.81,555.564,685.371,547.48,685.371z"/>
	</g>
</g>
<g>
	<g>
		<path fill="#FF6847" d="M221.077,433.715c-6.443-6.443-16.871-6.443-23.432,0l-24.018,24.018V344.207
			c0-9.138-7.381-16.52-16.52-16.52c-9.138,0-16.519,7.381-16.519,16.52v113.526l-24.018-23.9c-6.444-6.443-16.871-6.443-23.432,0
			c-6.444,6.444-6.444,16.871,0,23.432l52.252,52.136c3.281,3.28,7.498,4.804,11.716,4.804s8.436-1.641,11.716-4.804l52.253-52.253
			C227.521,450.703,227.521,440.276,221.077,433.715z"/>
	</g>
</g>
<g>
	<g>
		<path fill="#FF6847" d="M502.022,384.743l-52.252-52.252c-3.28-3.28-7.498-4.804-11.716-4.804s-8.436,1.64-11.716,4.804
			l-52.253,52.252c-6.443,6.444-6.443,16.871,0,23.432c6.444,6.443,16.871,6.443,23.432,0l24.018-24.018v113.526
			c0,9.139,7.381,16.52,16.52,16.52s16.52-7.381,16.52-16.52V384.157l24.017,24.018c6.444,6.443,16.871,6.443,23.432,0
			C508.466,401.731,508.466,391.304,502.022,384.743z"/>
	</g>
</g>
</svg>
