<?xml version="1.0" encoding="utf-8"?>
<!-- Generator: Adobe Illustrator 16.0.3, SVG Export Plug-In . SVG Version: 6.00 Build 0)  -->
<!DOCTYPE svg PUBLIC "-//W3C//DTD SVG 1.1//EN" "http://www.w3.org/Graphics/SVG/1.1/DTD/svg11.dtd">
<svg version="1.1" id="Capa_1" xmlns="http://www.w3.org/2000/svg" xmlns:xlink="http://www.w3.org/1999/xlink" x="0px" y="0px"
	 width="512px" height="512px" viewBox="0 0 512 512" enable-background="new 0 0 512 512" xml:space="preserve">
<g>
	<path fill="#FF6847" d="M15,378.5c8.508,0,12.138,3.258,19.539,10.628c8.209,8.175,19.452,19.372,40.708,19.372
		c21.257,0,32.5-11.196,40.709-19.371c10.066-10.025,11.357-9.016,15.324-10.296c11.285-1.956,16.348,2.918,23.756,10.295
		c8.209,8.175,19.451,19.372,40.708,19.372c21.256,0,32.5-11.196,40.708-19.372c7.399-7.37,11.029-10.628,19.538-10.628
		s12.14,3.258,19.54,10.629c8.209,8.175,19.452,19.371,40.709,19.371c21.258,0,32.5-11.196,40.71-19.371
		c7.401-7.371,11.032-10.629,19.541-10.629c8.51,0,12.142,3.258,19.543,10.629c8.209,8.175,19.453,19.371,40.711,19.371
		c21.259,0,32.501-11.196,40.711-19.371c7.403-7.371,11.034-10.629,19.544-10.629c8.284,0,15-6.716,15-15s-6.716-15-15-15
		c-21.258,0-32.501,11.196-40.711,19.371c-7.401,7.371-11.032,10.629-19.543,10.629c-13.809,0-17.104-10.779-30.971-20.741
		C456.209,248.644,376.203,123.5,256,123.5c-120.194,0-200.224,125.164-149.789,234.262C92.496,367.617,89.008,378.5,75.247,378.5
		c-8.509,0-12.139-3.258-19.539-10.628C47.5,359.696,36.257,348.5,15,348.5c-8.284,0-15,6.716-15,15S6.716,378.5,15,378.5L15,378.5z
		 M121,288.5c0-74.439,60.561-135,135-135c100.148,0,165.284,105.691,120.957,195.008c-18.946-0.148-29.758,7.995-41.175,19.363
		c-7.4,7.371-11.031,10.629-19.541,10.629c-8.509,0-12.139-3.258-19.539-10.628c-8.209-8.175-19.452-19.372-40.709-19.372
		c-21.258,0-32.499,11.195-40.708,19.372c-7.4,7.37-11.03,10.628-19.539,10.628c-8.51,0-12.14-3.258-19.54-10.628
		c-11.694-11.646-22.357-19.501-41.159-19.364C125.838,329.955,121,309.4,121,288.5z"/>
	<path fill="#FF6847" d="M497,418.5c-21.259,0-32.502,11.196-40.712,19.371c-7.401,7.371-11.032,10.629-19.543,10.629
		c-8.51,0-12.141-3.258-19.543-10.629c-8.209-8.175-19.452-19.371-40.711-19.371c-21.258,0-32.5,11.196-40.71,19.371
		c-7.4,7.371-11.031,10.629-19.541,10.629c-8.509,0-12.139-3.258-19.539-10.628c-8.209-8.175-19.452-19.372-40.709-19.372
		c-21.258,0-32.499,11.196-40.708,19.372c-7.4,7.37-11.03,10.628-19.539,10.628c-8.51,0-12.14-3.258-19.54-10.628
		c-8.209-8.175-19.452-19.372-40.709-19.372c-21.259,0-32.5,11.196-40.709,19.372c-7.401,7.37-11.031,10.628-19.54,10.628
		s-12.139-3.258-19.539-10.628C47.5,429.696,36.257,418.5,15,418.5c-8.284,0-15,6.716-15,15s6.716,15,15,15
		c8.508,0,12.138,3.258,19.539,10.628c8.209,8.175,19.452,19.372,40.708,19.372c21.257,0,32.5-11.196,40.709-19.371
		c7.4-7.371,11.031-10.629,19.541-10.629c8.509,0,12.139,3.258,19.54,10.628c8.209,8.175,19.451,19.372,40.708,19.372
		c21.256,0,32.5-11.196,40.708-19.372c7.399-7.37,11.029-10.628,19.538-10.628s12.14,3.258,19.541,10.629
		c8.209,8.175,19.451,19.371,40.708,19.371c21.258,0,32.5-11.196,40.71-19.371c7.401-7.371,11.032-10.629,19.541-10.629
		c8.511,0,12.142,3.258,19.543,10.629c8.209,8.175,19.453,19.371,40.711,19.371c21.259,0,32.501-11.196,40.711-19.371
		C484.859,451.758,488.49,448.5,497,448.5c8.283,0,15-6.716,15-15S505.283,418.5,497,418.5z"/>
	<path fill="#FF6847" d="M256,93.5c8.284,0,15-6.716,15-15v-30c0-8.284-6.716-15-15-15s-15,6.716-15,15v30
		C241,86.784,247.716,93.5,256,93.5z"/>
	<path fill="#FF6847" d="M138.01,114.135c4.163,7.21,13.35,9.613,20.49,5.49c7.174-4.142,9.632-13.316,5.49-20.49l-15-25.981
		c-4.143-7.174-13.316-9.633-20.49-5.49c-7.174,4.142-9.632,13.316-5.49,20.49L138.01,114.135z"/>
	<path fill="#FF6847" d="M40.654,181.49c25.288,13.913,26.68,17.012,33.468,17.012c15.322,0,20.748-20.352,7.514-27.993l-25.981-15
		c-7.175-4.144-16.349-1.684-20.489,5.49C31.021,168.174,33.479,177.348,40.654,181.49z"/>
	<path fill="#FF6847" d="M16,303.5h30c8.284,0,15-6.716,15-15s-6.716-15-15-15H16c-8.284,0-15,6.716-15,15S7.716,303.5,16,303.5z"/>
	<path fill="#FF6847" d="M451,288.5c0,8.284,6.716,15,15,15h30c8.283,0,15-6.716,15-15s-6.717-15-15-15h-30
		C457.716,273.5,451,280.216,451,288.5z"/>
	<path fill="#FF6847" d="M445.365,196.49l25.981-15c7.174-4.142,9.632-13.316,5.49-20.49c-4.143-7.174-13.315-9.633-20.49-5.49
		l-25.981,15c-7.174,4.142-9.632,13.316-5.489,20.49C429.037,198.21,438.225,200.613,445.365,196.49z"/>
	<path fill="#FF6847" d="M353.5,119.625c7.142,4.125,16.33,1.715,20.489-5.49l15-25.981c4.143-7.174,1.685-16.348-5.489-20.49
		c-7.176-4.144-16.35-1.684-20.49,5.49l-15,25.981C343.867,106.309,346.325,115.483,353.5,119.625z"/>
</g>
</svg>
