<svg width="27" height="27" viewBox="0 0 27 27" fill="none" xmlns="http://www.w3.org/2000/svg">
<path d="M22.2675 0.5H4.48245C2.14866 0.5 0.25 2.39866 0.25 4.73245V22.5175C0.25 24.8513 2.14866 26.75 4.48245 26.75H22.2675C24.6013 26.75 26.5 24.8513 26.5 22.5175V4.73245C26.5 2.39866 24.6013 0.5 22.2675 0.5ZM24.9498 22.5175C24.9498 23.9965 23.7466 25.1998 22.2675 25.1998H4.48245C3.00348 25.1998 1.80019 23.9966 1.80019 22.5175V4.73245C1.80019 3.25348 3.00343 2.05019 4.48245 2.05019H22.2675C23.7465 2.05019 24.9498 3.25343 24.9498 4.73245V22.5175Z" fill="#FF6847"/>
<path d="M13.9177 4.81507H10.2104C8.78576 4.81507 7.62671 5.97412 7.62671 7.39875V21.6598C7.62671 22.0879 7.97375 22.4349 8.4018 22.4349H12.0189C12.447 22.4349 12.794 22.0879 12.794 21.6599V17.2938H13.9177C17.3581 17.2938 20.157 14.4948 20.157 11.0544C20.157 7.61403 17.3581 4.81507 13.9177 4.81507ZM13.9177 15.7436H12.019C11.5909 15.7436 11.2439 16.0906 11.2439 16.5187V20.8847H9.17694V7.3987C9.17694 6.82884 9.64057 6.36526 10.2104 6.36526H13.9177C16.5033 6.36526 18.6069 8.46879 18.6069 11.0544C18.6069 13.64 16.5033 15.7436 13.9177 15.7436Z" fill="#FF6847"/>
<path d="M13.918 8.43219H12.0192C11.5912 8.43219 11.2441 8.77923 11.2441 9.20728V12.9016C11.2441 13.3296 11.5912 13.6767 12.0192 13.6767H13.918C15.3638 13.6767 16.5402 12.5003 16.5402 11.0544C16.5402 9.60852 15.3638 8.43219 13.918 8.43219ZM13.918 12.1265H12.7943V9.98238H13.918C14.5091 9.98238 14.99 10.4633 14.99 11.0544C14.99 11.6455 14.5091 12.1265 13.918 12.1265Z" fill="#FF6847"/>
</svg>
