<svg width="26" height="30" viewBox="0 0 26 30" fill="none" xmlns="http://www.w3.org/2000/svg">
<path d="M24.8876 21.9807C24.5118 21.7086 23.992 21.8001 23.7264 22.1852C23.7229 22.1902 23.3478 22.7033 22.643 23.0343C21.6418 23.5045 20.4757 23.3892 19.1771 22.6916C19.1255 22.6638 19.0733 22.6362 19.0209 22.6087V6.9672C19.0209 4.55228 20.9381 2.58758 23.2946 2.58758C23.7547 2.58758 24.1277 2.20531 24.1277 1.73377C24.1277 1.26228 23.7547 0.880005 23.2945 0.880005C20.0191 0.880005 17.3545 3.61071 17.3545 6.9672V9.57467H4.32321V6.9672C4.32321 4.55234 6.2404 2.58764 8.59692 2.58764C9.05706 2.58764 9.43009 2.20537 9.43009 1.73382C9.43009 1.26228 9.05706 0.880005 8.59692 0.880005C5.3216 0.880005 2.65692 3.61071 2.65692 6.9672V21.9454C2.19206 22.131 1.72149 22.3353 1.245 22.56C0.82701 22.7572 0.644173 23.2643 0.836506 23.6926C1.02895 24.1209 1.52378 24.3083 1.94177 24.1112C9.11014 20.7295 14.8502 22.2951 18.4033 24.2039C19.5307 24.8096 20.5217 25.023 21.3587 25.0229C22.1673 25.0229 22.8324 24.8237 23.3372 24.5866C24.4492 24.0642 25.0251 23.2606 25.0871 23.1707C25.3527 22.7856 25.2634 22.2528 24.8876 21.9807ZM17.3545 21.8288C14.0748 20.4767 9.62374 19.6924 4.32321 21.3524V17.3014H17.3545V21.8288ZM17.3545 15.5939H4.32321V11.2823H17.3545V15.5939Z" fill="#FC6341"/>
<path d="M24.8876 26.6378C24.5119 26.3657 23.992 26.4572 23.7264 26.8423C23.7229 26.8473 23.3478 27.3604 22.643 27.6914C21.6418 28.1617 20.4757 28.0463 19.1771 27.3487C15.2928 25.2619 9.02862 23.5451 1.24509 27.2171C0.827109 27.4143 0.644272 27.9214 0.836605 28.3497C1.02905 28.778 1.52382 28.9654 1.94181 28.7683C9.11018 25.3866 14.8502 26.9522 18.4033 28.861C19.5308 29.4667 20.5218 29.6801 21.3588 29.68C22.1673 29.68 22.8324 29.4808 23.3372 29.2437C24.4492 28.7213 25.0252 27.9177 25.0871 27.8278C25.3528 27.4427 25.2634 26.9099 24.8876 26.6378Z" fill="#FC6341"/>
</svg>
