<?xml version="1.0" encoding="utf-8"?>
<!-- Generator: Adobe Illustrator 16.0.3, SVG Export Plug-In . SVG Version: 6.00 Build 0)  -->
<!DOCTYPE svg PUBLIC "-//W3C//DTD SVG 1.1//EN" "http://www.w3.org/Graphics/SVG/1.1/DTD/svg11.dtd">
<svg version="1.1" id="Capa_1" xmlns="http://www.w3.org/2000/svg" xmlns:xlink="http://www.w3.org/1999/xlink" x="0px" y="0px"
	 width="512px" height="512px" viewBox="0 0 512 512" enable-background="new 0 0 512 512" xml:space="preserve">
<path fill="#FF6847" d="M425.563,43.453L384.461,0H127.539L86.438,43.453L0,76.699V512h512V76.699L425.563,43.453z M371.891,30.371
	l22.418,23.699L329.59,162.734l-42.02-47.188L371.891,30.371z M140.11,30.371l84.32,85.172l-42.02,47.191L117.692,54.066
	L140.11,30.371z M241,482H30V97.301l63.887-24.57l83.703,140.535L241,142.051V482z M181.957,30h148.086L256,104.789L181.957,30z
	 M482,482H271V142.051l63.41,71.215L418.114,72.73L482,97.301V482z"/>
<path fill="#FF6847" d="M312,328c0,35.84,29.16,65,65,65s65-29.16,65-65v-75H312V328z M342,283h70v45c0,19.301-15.699,35-35,35
	s-35-15.699-35-35V283z"/>
<path fill="#FF6847" d="M211,249c0,8.285-6.715,15-15,15s-15-6.715-15-15s6.715-15,15-15S211,240.715,211,249z"/>
<path fill="#FF6847" d="M211,309c0,8.285-6.715,15-15,15s-15-6.715-15-15s6.715-15,15-15S211,300.715,211,309z"/>
<path fill="#FF6847" d="M211,369c0,8.285-6.715,15-15,15s-15-6.715-15-15s6.715-15,15-15S211,360.715,211,369z"/>
<path fill="#FF6847" d="M211,429c0,8.285-6.715,15-15,15s-15-6.715-15-15s6.715-15,15-15S211,420.715,211,429z"/>
</svg>
