<svg width="33" height="20" viewBox="0 0 33 20" fill="none" xmlns="http://www.w3.org/2000/svg">
<path d="M32.0903 7.19254H27.867L20.5251 0.253396C20.3561 0.0909627 20.1287 0 19.8948 0H8.53099C8.21262 0 7.92024 0.162433 7.75781 0.428824L3.50856 7.19254H0.916123C0.409332 7.19254 0 7.60187 0 8.10867V15.912C0 16.4187 0.409332 16.8281 0.916123 16.8281H2.54045C2.95628 18.5824 4.52864 19.8883 6.40636 19.8883C8.28409 19.8883 9.85645 18.5759 10.2723 16.8281H22.7276C23.1435 18.5824 24.7158 19.8883 26.5936 19.8883C28.4713 19.8883 30.0436 18.5759 30.4595 16.8281H32.0838C32.5906 16.8281 32.9999 16.4187 32.9999 15.912V8.10867C33.0064 7.60187 32.5971 7.19254 32.0903 7.19254ZM15.7365 1.83874H19.531L25.1966 7.19254H15.7365V1.83874ZM9.03778 1.83874H13.9043V7.19254H5.67217L9.03778 1.83874ZM6.40636 18.0561C5.22385 18.0561 4.26225 17.0945 4.26225 15.912C4.26225 14.7294 5.22385 13.7678 6.40636 13.7678C7.58888 13.7678 8.55048 14.7294 8.55048 15.9055C8.55048 15.9055 8.55048 15.9055 8.55048 15.912C8.55048 15.912 8.55048 15.912 8.55048 15.9185C8.55048 17.101 7.58888 18.0561 6.40636 18.0561ZM26.6001 18.0561C25.4175 18.0561 24.4559 17.0945 24.4559 15.9185C24.4559 15.9185 24.4559 15.9185 24.4559 15.912C24.4559 15.912 24.4559 15.912 24.4559 15.9055C24.4559 14.7229 25.4175 13.7678 26.6001 13.7678C27.7826 13.7678 28.7442 14.7294 28.7442 15.912C28.7442 17.0945 27.7826 18.0561 26.6001 18.0561ZM31.1742 14.9958H30.466C30.0501 13.2416 28.4778 11.9356 26.6001 11.9356C24.7223 11.9356 23.15 13.2416 22.7341 14.9958H10.2723C9.85645 13.2416 8.28409 11.9356 6.40636 11.9356C4.52864 11.9356 2.95628 13.2416 2.54045 14.9958H1.83225V9.02479H31.1742V14.9958Z" fill="#FC6341"/>
</svg>
