<svg width="25" height="19" viewBox="0 0 25 19" fill="none" xmlns="http://www.w3.org/2000/svg">
<path d="M2.12112 6.51366C7.68299 0.748634 17.0934 0.748634 22.6552 6.51366C22.8398 6.70492 23.077 6.78689 23.3142 6.78689C23.5515 6.78689 23.7887 6.70492 23.9732 6.51366C24.3423 6.13115 24.3423 5.53005 23.9732 5.14754C17.6733 -1.38251 7.07672 -1.38251 0.776776 5.14754C0.407741 5.53005 0.407741 6.13115 0.776776 6.51366C1.14581 6.89617 1.75208 6.89617 2.12112 6.51366Z" fill="#FF6847"/>
<path d="M16.6716 13.6721C16.9089 13.6721 17.1461 13.5902 17.3306 13.3989C17.6996 13.0164 17.6996 12.4153 17.3306 12.0328C14.6419 9.2459 10.0817 9.2459 7.39304 12.0328C7.024 12.4153 7.024 13.0164 7.39304 13.3989C7.76207 13.7814 8.34198 13.7814 8.71102 13.3989C10.6616 11.377 14.062 11.377 15.9863 13.3989C16.1971 13.5628 16.4344 13.6721 16.6716 13.6721Z" fill="#FF6847"/>
<path d="M19.9929 10.2295C20.2302 10.2295 20.4674 10.1475 20.6519 9.95628C21.021 9.57377 21.021 8.97268 20.6519 8.59016C16.0126 3.78142 8.73738 3.78142 4.09809 8.59016C3.72905 8.97268 3.72905 9.57377 4.09809 9.95628C4.46712 10.3388 5.04703 10.3388 5.41607 9.95628C9.37001 5.85792 15.3536 5.85792 19.3339 9.95628C19.5185 10.1202 19.7557 10.2295 19.9929 10.2295Z" fill="#FF6847"/>
<path d="M12.375 19C13.5396 19 14.4838 18.0214 14.4838 16.8142C14.4838 15.607 13.5396 14.6284 12.375 14.6284C11.2104 14.6284 10.2662 15.607 10.2662 16.8142C10.2662 18.0214 11.2104 19 12.375 19Z" fill="#FF6847"/>
</svg>
